# Blender v3.0.1 OBJ File: ''
# www.blender.org
mtllib bunny_144.mtl
o bunny
v -0.623312 1.505700 -0.405385
v -0.753295 1.599660 -0.450648
v -0.766018 1.233450 0.046385
v -0.575289 1.216585 0.077779
v -0.919337 1.298030 0.325804
v -0.559622 1.290712 0.450161
v -0.686053 1.317297 -0.483370
v -0.353863 0.240441 -0.035785
v 0.150125 0.041083 -0.168942
v -0.050563 0.633318 -0.331535
v 0.084153 0.053350 -0.064240
v 0.338426 0.024863 0.095114
v 0.123399 0.732520 -0.177459
v 0.068186 1.055457 0.345147
v 0.350279 0.869921 0.407547
v -0.933039 0.874419 0.214982
v -0.917809 1.129448 0.268630
v -0.931786 0.680699 0.279470
v -0.763449 1.089982 0.679583
v -0.755433 0.784557 0.506396
v -0.937562 0.905616 0.559222
v -0.831337 0.908967 0.047129
v -0.298161 0.876681 -0.102337
v -0.500488 1.026026 0.021327
v -0.490231 0.235066 0.278411
v -0.711824 0.032136 0.025978
v -0.707240 0.154627 0.137429
v -0.344941 0.690377 0.547373
v -0.164245 0.707903 0.555667
v 0.021410 0.878444 0.518686
v 0.296481 0.979265 0.080919
v 0.098318 0.275270 0.663416
v 0.180024 0.040058 0.510054
v 0.418194 0.265144 0.417607
v -0.444812 0.031232 -0.227994
v -0.440704 0.070811 -0.093340
v -0.565820 0.334448 -0.015526
v -0.871603 0.557553 0.042117
v -0.681819 0.592186 -0.133527
v 0.520900 0.188927 0.401408
v 0.530709 0.429032 0.278596
v 0.569682 0.270140 -0.014729
v -0.297906 0.054117 0.316857
v -0.681411 0.039602 0.323400
v -0.333540 0.033072 0.577754
v -0.264450 0.243961 0.456313
v -0.184842 0.617601 0.692421
v 0.246119 0.563016 0.614949
v 0.399849 0.587440 -0.118468
v -0.065862 1.493297 -0.199233
v -0.110924 1.363024 0.007822
v -0.157879 0.305757 -0.315875
v -0.257565 0.190805 -0.228018
v -0.377956 0.609933 -0.174603
v 0.237442 0.198656 -0.206524
v 0.057807 0.950667 -0.083783
v -0.135703 1.655412 -0.143436
v -0.485049 1.247947 0.235850
v -0.264767 1.554103 0.054497
v -0.674926 1.321837 0.163163
v 0.463218 0.355129 -0.014439
v -0.824864 0.412071 0.285165
v -0.726000 0.072000 0.047300
v -0.726500 0.076500 0.053000
v -0.725766 0.074901 0.050642
v -0.566051 1.010795 0.522967
v 0.515630 0.702493 0.259208
v 0.674118 0.235338 0.187447
v -0.260421 0.999418 0.327422
v -0.523323 0.364142 0.499417
v 0.165851 0.039351 0.415673
v -0.529169 0.210915 0.493941
v -0.419963 0.999669 0.368075
v -0.728708 0.847650 0.633885
v -0.565578 0.558913 0.584868
v -0.183795 0.214757 0.592964
vt 0.238599 0.773594
vt 0.133810 0.657774
vt 0.248005 0.712547
vt 0.228773 0.495297
vt 0.085608 0.336430
vt 0.415074 0.627464
vt 0.712662 0.833994
vt 0.232987 0.878780
vt 0.454390 0.214834
vt 0.384956 0.250610
vt 0.439552 0.347150
vt 0.631161 0.167671
vt 0.719299 0.159514
vt 0.610327 0.160880
vt 0.662779 0.222945
vt 0.623052 0.398934
vt 0.605031 0.462414
vt 0.702735 0.459905
vt 0.634614 0.473050
vt 0.274362 0.351652
vt 0.283283 0.326141
vt 0.316553 0.269385
vt 0.290940 0.428189
vt 0.272134 0.505142
vt 0.278400 0.423496
vt 0.296826 0.550965
vt 0.347032 0.477042
vt 0.360410 0.408512
vt 0.348288 0.386811
vt 0.284077 0.447317
vt 0.235755 0.188139
vt 0.465673 0.436453
vt 0.507236 0.446711
vt 0.338860 0.344509
vt 0.741160 0.415942
vt 0.782458 0.354797
vt 0.582210 0.306823
vt 0.718280 0.310448
vt 0.569817 0.351018
vt 0.477077 0.213078
vt 0.423798 0.167593
vt 0.335232 0.345669
vt 0.347872 0.172593
vt 0.431253 0.158272
vt 0.494157 0.141044
vt 0.669423 0.135468
vt 0.765129 0.211768
vt 0.807244 0.195547
vt 0.714966 0.157553
vt 0.834677 0.220005
vt 0.762335 0.258992
vt 0.793753 0.236997
vt 0.496492 0.133933
vt 0.510509 0.125553
vt 0.408025 0.205459
vt 0.375125 0.136325
vt 0.668594 0.211550
vt 0.722782 0.349116
vt 0.519034 0.270848
vt 0.552116 0.363211
vt 0.647115 0.277663
vt 0.808793 0.341688
vt 0.691406 0.500305
vt 0.602842 0.044992
vt 0.406922 0.338150
vt 0.427269 0.421877
vt 0.408751 0.449079
vt 0.573990 0.527387
vt 0.784261 0.297249
vt 0.808391 0.264183
vt 0.337390 0.147330
vt 0.441400 0.798100
vt 0.441100 0.793600
vt 0.441677 0.795508
vt 0.400674 0.506480
vt 0.628663 0.415495
vt 0.484904 0.336981
vt 0.430545 0.252405
vt 0.519982 0.199857
vt 0.569015 0.174424
vt 0.429677 0.174589
vt 0.405380 0.128515
vt 0.421413 0.303632
vt 0.697242 0.136702
vn 0.8407 0.4528 -0.2970
vn -0.0136 -0.5842 -0.8115
vn -0.3805 0.7953 -0.4719
vn -0.7985 0.0721 -0.5977
vn 0.5112 -0.1760 -0.8412
vn -0.1537 0.9875 0.0344
vn -0.6698 0.0737 -0.7389
vn -0.4795 -0.5116 -0.7130
vn -0.3039 0.1030 -0.9471
vn 0.2208 -0.7812 -0.5839
vn 0.3591 -0.9141 -0.1885
vn -0.0556 -0.9974 0.0467
vn 0.4889 -0.3027 -0.8182
vn 0.2615 0.5270 -0.8086
vn 0.0884 0.7527 -0.6524
vn 0.5289 0.7902 -0.3095
vn 0.0895 0.9501 0.2989
vn -0.9486 -0.1316 0.2880
vn -0.8197 -0.2778 -0.5009
vn -0.7290 -0.6414 0.2391
vn -0.8202 -0.3248 0.4709
vn -0.9517 0.1045 -0.2888
vn -0.9813 -0.0111 -0.1920
vn -0.7183 0.6946 0.0398
vn -0.0743 0.3095 0.9480
vn 0.2397 -0.6166 0.7499
vn -0.3349 -0.5275 0.7808
vn -0.6356 0.1388 -0.7595
vn -0.0563 0.6285 -0.7758
vn -0.0184 0.9382 0.3456
vn 0.2338 0.6367 -0.7348
vn 0.5915 0.5748 0.5654
vn 0.9452 0.2968 0.1357
vn -0.2697 0.3268 0.9058
vn 0.4608 0.2138 0.8613
vn -0.0262 0.6640 0.7473
vn -0.3933 -0.0589 -0.9175
vn -0.7014 -0.4581 -0.5461
vn -0.4107 -0.0975 -0.9065
vn -0.8701 0.4911 -0.0418
vn -0.6972 -0.6013 -0.3902
vn 0.0085 -0.9987 -0.0494
vn 0.2185 -0.9736 0.0666
vn 0.5152 -0.0089 0.8570
vn 0.5782 -0.3382 0.7425
vn 0.9901 -0.1397 -0.0122
vn 0.7537 0.0472 -0.6556
vn 0.5975 0.0441 -0.8006
vn -0.2027 -0.5823 0.7873
vn -0.9699 0.0265 0.2422
vn -0.7893 -0.4575 0.4095
vn 0.2005 -0.2845 0.9375
vn 0.7066 0.2199 -0.6726
vn -0.1807 -0.2553 -0.9498
vn -0.0363 0.4823 -0.8752
vn 0.7931 -0.4758 0.3803
vn 0.6497 -0.0578 -0.7580
vn 0.2390 0.9201 -0.3102
vn 0.9091 0.2728 0.3148
vn 0.4955 0.6259 0.6023
vn 0.7414 -0.1258 0.6591
vn 0.4474 0.5623 0.6955
vn 0.9049 0.2704 0.3287
vn -0.6970 -0.4525 -0.5562
vn -0.9931 0.0959 0.0667
vn -0.9912 0.1058 0.0791
vn -0.9917 0.1128 0.0620
vn 0.5325 0.7055 0.4676
vn 0.0875 0.3571 0.9300
vn -0.1274 0.3128 0.9412
vn -0.3557 -0.3769 0.8552
vn -0.4356 0.1470 0.8880
vn -0.4187 -0.1079 0.9017
vn -0.6644 0.1768 0.7261
vn -0.2296 -0.2106 0.9502
vn 0.3904 -0.7995 0.4564
usemtl Default_OBJ
s 1
f 1/1/1 7/2/2 2/3/3
f 3/4/4 7/2/2 4/5/5
f 1/1/1 2/3/3 60/6/6
f 7/2/2 3/4/4 2/3/3
f 2/3/3 3/4/4 60/6/6
f 4/7/5 7/8/2 1/1/1
f 8/9/7 37/10/8 54/11/9
f 9/12/10 12/13/11 11/14/12
f 9/12/10 55/15/13 12/13/11
f 13/16/14 56/17/15 31/18/16
f 14/19/17 31/18/16 56/17/15
f 18/20/18 38/21/19 62/22/20
f 21/23/21 17/24/22 16/25/23
f 5/26/24 21/23/21 19/27/25
f 74/28/26 21/23/21 20/29/27
f 62/22/20 20/29/27 18/20/18
f 5/26/24 17/24/22 21/23/21
f 18/20/18 16/25/23 38/21/19
f 22/30/28 3/4/4 4/31/5
f 56/17/15 23/32/29 69/33/30
f 22/30/28 4/31/5 24/34/31
f 14/19/17 15/35/32 31/18/16
f 31/18/16 15/35/32 67/36/33
f 47/37/34 48/38/35 29/39/36
f 29/39/36 48/38/35 15/35/32
f 53/40/37 35/41/38 8/9/7
f 37/10/8 39/42/39 54/11/9
f 39/42/39 23/32/29 54/11/9
f 39/42/39 37/10/8 38/21/19
f 37/10/8 8/9/7 27/43/40
f 36/44/41 11/14/12 43/45/42
f 12/13/11 71/46/43 11/14/12
f 34/47/44 71/46/43 40/48/45
f 12/49/11 68/50/46 40/48/45
f 61/51/47 12/13/11 55/15/13
f 68/50/46 12/49/11 42/52/48
f 43/53/42 71/46/43 45/54/49
f 27/43/40 25/55/50 37/10/8
f 37/10/8 25/55/50 62/22/20
f 27/43/40 44/56/51 25/55/50
f 48/38/35 47/37/34 32/57/52
f 67/36/33 48/38/35 34/47/44
f 49/58/53 61/51/47 55/15/13
f 49/58/53 67/36/33 61/51/47
f 53/40/37 54/11/9 52/59/54
f 10/60/55 52/59/54 54/11/9
f 10/60/55 13/16/14 49/58/53
f 51/61/56 50/62/57 57/63/58
f 4/64/5 51/61/56 58/65/59
f 4/7/5 57/63/58 50/62/57
f 55/15/13 52/59/54 10/60/55
f 13/16/14 10/60/55 54/11/9
f 9/12/10 11/14/12 35/41/38
f 10/60/55 49/58/53 55/15/13
f 35/41/38 53/40/37 9/12/10
f 53/40/37 55/15/13 9/12/10
f 52/59/54 55/15/13 53/40/37
f 31/18/16 49/58/53 13/16/14
f 49/58/53 31/18/16 67/36/33
f 13/16/14 54/11/9 23/32/29
f 13/16/14 23/32/29 56/17/15
f 36/44/41 35/41/38 11/14/12
f 58/65/59 51/61/56 57/63/58
f 4/31/5 58/65/59 73/66/60
f 73/66/60 66/67/61 20/29/27
f 66/67/61 74/28/26 20/29/27
f 57/63/58 60/6/6 59/68/62
f 60/6/6 57/63/58 4/7/5
f 59/68/62 60/6/6 58/65/59
f 53/40/37 8/9/7 54/11/9
f 4/64/5 50/69/57 51/61/56
f 24/34/31 23/32/29 39/42/39
f 24/34/31 39/42/39 22/30/28
f 36/44/41 8/9/7 35/41/38
f 58/65/59 57/63/58 59/68/62
f 24/34/31 69/33/30 23/32/29
f 4/7/5 1/1/1 60/6/6
f 16/25/23 39/42/39 38/21/19
f 41/70/63 68/50/46 61/51/47
f 61/51/47 68/50/46 42/52/48
f 26/71/64 8/9/7 36/44/41
f 22/30/28 39/42/39 16/25/23
f 12/49/11 61/51/47 42/52/48
f 38/21/19 37/10/8 62/22/20
f 27/43/40 8/9/7 26/71/64
f 69/33/30 24/34/31 73/66/60
f 17/24/22 22/30/28 16/25/23
f 22/30/28 17/24/22 3/4/4
f 69/33/30 14/19/17 56/17/15
f 5/26/24 3/4/4 17/24/22
f 3/4/4 5/26/24 60/6/6
f 73/66/60 24/34/31 4/31/5
f 63/72/65 64/73/66 65/74/67
f 63/72/65 65/74/67 64/73/66
f 41/70/63 67/36/33 34/47/44
f 66/67/61 73/66/60 58/65/59
f 58/65/59 60/6/6 6/75/68
f 61/51/47 67/36/33 41/70/63
f 26/71/64 36/44/41 43/45/42
f 44/56/51 27/43/40 26/71/64
f 43/45/42 44/56/51 26/71/64
f 43/45/42 11/14/12 71/46/43
f 40/48/45 71/46/43 12/49/11
f 30/76/69 14/19/17 69/33/30
f 29/39/36 69/33/30 28/77/70
f 48/38/35 67/36/33 15/35/32
f 68/50/46 41/70/63 40/48/45
f 5/26/24 6/75/68 60/6/6
f 28/77/70 70/78/71 46/79/72
f 47/37/34 28/77/70 46/79/72
f 76/80/73 47/37/34 46/79/72
f 62/22/20 25/55/50 70/78/71
f 58/65/59 6/75/68 66/67/61
f 16/25/23 18/20/18 20/29/27
f 72/81/74 25/55/50 44/82/51
f 25/55/50 72/81/74 70/78/71
f 34/47/44 40/48/45 41/70/63
f 21/23/21 16/25/23 20/29/27
f 20/29/27 62/22/20 70/78/71
f 29/39/36 30/76/69 69/33/30
f 6/75/68 5/26/24 19/27/25
f 30/76/69 15/35/32 14/19/17
f 20/29/27 28/77/70 73/66/60
f 69/33/30 73/66/60 28/77/70
f 6/75/68 19/27/25 66/67/61
f 75/83/75 20/29/27 70/78/71
f 15/35/32 30/76/69 29/39/36
f 33/84/76 34/47/44 32/57/52
f 34/47/44 33/84/76 71/46/43
f 71/46/43 33/84/76 45/54/49
f 74/28/26 19/27/25 21/23/21
f 70/78/71 72/81/74 46/79/72
f 45/54/49 44/82/51 43/53/42
f 28/77/70 20/29/27 75/83/75
f 75/83/75 70/78/71 28/77/70
f 66/67/61 19/27/25 74/28/26
f 28/77/70 47/37/34 29/39/36
f 45/54/49 76/80/73 46/79/72
f 34/47/44 48/38/35 32/57/52
f 33/84/76 32/57/52 76/80/73
f 45/54/49 72/81/74 44/82/51
f 46/79/72 72/81/74 45/54/49
f 47/37/34 76/80/73 32/57/52
f 76/80/73 45/54/49 33/84/76
